<svg xmlns="http://www.w3.org/2000/svg" width="1240" height="1754" viewBox="0 0 1240 1754">
<rect width="100%" height="100%" fill="#fbfaf7"/>
<style>text{font-family:DejaVu Sans, Arial, sans-serif;fill:#1f2933}.muted{fill:#5f6978}.mono{font-family:DejaVu Sans Mono,monospace}</style>
<text x="72.0" y="62.0" font-size="23" font-weight="400" fill="#697386" text-anchor="start" class="">RelPT dataflow</text>
<line x1="72.0" y1="82.0" x2="1168.0" y2="82.0" stroke="#d7dbe2" stroke-width="2"/>
<text x="72.0" y="155.0" font-size="45" font-weight="700" fill="#1f2933" text-anchor="start" class="">With RelPT: query first, execute only the delta</text>
<rect x="72.0" y="270.0" width="238.0" height="118.0" rx="8" fill="#f7fbff" stroke="#cbd3df" stroke-width="2"/>
<text x="191.0" y="314.0" font-size="24" font-weight="700" fill="#1f2933" text-anchor="middle" class="">prompt</text>
<text x="191.0" y="348.0" font-size="20" font-weight="400" fill="#697386" text-anchor="middle" class="">input rows</text>
<rect x="357.0" y="270.0" width="238.0" height="118.0" rx="8" fill="#f7fbff" stroke="#cbd3df" stroke-width="2"/>
<text x="476.0" y="314.0" font-size="24" font-weight="700" fill="#1f2933" text-anchor="middle" class="">trajectory</text>
<text x="476.0" y="348.0" font-size="20" font-weight="400" fill="#697386" text-anchor="middle" class="">responses</text>
<line x1="310.0" y1="329.0" x2="357.0" y2="329.0" stroke="#5b7799" stroke-width="3"/>
<path d="M357.0,329.0 l-16,-9 l0,18 z" fill="#5b7799"/>
<rect x="642.0" y="270.0" width="238.0" height="118.0" rx="8" fill="#f7fbff" stroke="#cbd3df" stroke-width="2"/>
<text x="761.0" y="314.0" font-size="24" font-weight="700" fill="#1f2933" text-anchor="middle" class="">reward</text>
<text x="761.0" y="348.0" font-size="20" font-weight="400" fill="#697386" text-anchor="middle" class="">scores</text>
<line x1="595.0" y1="329.0" x2="642.0" y2="329.0" stroke="#5b7799" stroke-width="3"/>
<path d="M642.0,329.0 l-16,-9 l0,18 z" fill="#5b7799"/>
<rect x="927.0" y="270.0" width="238.0" height="118.0" rx="8" fill="#f7fbff" stroke="#cbd3df" stroke-width="2"/>
<text x="1046.0" y="314.0" font-size="24" font-weight="700" fill="#1f2933" text-anchor="middle" class="">logprob</text>
<text x="1046.0" y="348.0" font-size="20" font-weight="400" fill="#697386" text-anchor="middle" class="">PPO refs</text>
<line x1="880.0" y1="329.0" x2="927.0" y2="329.0" stroke="#5b7799" stroke-width="3"/>
<path d="M927.0,329.0 l-16,-9 l0,18 z" fill="#5b7799"/>
<rect x="357.0" y="500.0" width="238.0" height="118.0" rx="8" fill="#f6fff8" stroke="#cbd3df" stroke-width="2"/>
<text x="476.0" y="544.0" font-size="24" font-weight="700" fill="#1f2933" text-anchor="middle" class="">reward_cache</text>
<text x="476.0" y="578.0" font-size="20" font-weight="400" fill="#697386" text-anchor="middle" class="">semantic reuse</text>
<rect x="642.0" y="500.0" width="238.0" height="118.0" rx="8" fill="#f8f5ff" stroke="#cbd3df" stroke-width="2"/>
<text x="761.0" y="544.0" font-size="24" font-weight="700" fill="#1f2933" text-anchor="middle" class="">advantage</text>
<text x="761.0" y="578.0" font-size="20" font-weight="400" fill="#697386" text-anchor="middle" class="">returns</text>
<rect x="927.0" y="500.0" width="238.0" height="118.0" rx="8" fill="#fffaf0" stroke="#cbd3df" stroke-width="2"/>
<text x="1046.0" y="544.0" font-size="24" font-weight="700" fill="#1f2933" text-anchor="middle" class="">batch</text>
<text x="1046.0" y="578.0" font-size="20" font-weight="400" fill="#697386" text-anchor="middle" class="">materialized</text>
<line x1="476.0" y1="500.0" x2="762.0" y2="388.0" stroke="#5f9b6a" stroke-width="3"/>
<path d="M762.0,388.0 l-16,-9 l0,18 z" fill="#5f9b6a"/>
<line x1="762.0" y1="500.0" x2="762.0" y2="388.0" stroke="#8068b5" stroke-width="3"/>
<path d="M762.0,388.0 l-9,16 l18,0 z" fill="#8068b5"/>
<line x1="1046.0" y1="500.0" x2="1046.0" y2="388.0" stroke="#9f7f39" stroke-width="3"/>
<path d="M1046.0,388.0 l-9,16 l18,0 z" fill="#9f7f39"/>
<text x="72.0" y="760.0" font-size="38" font-weight="700" fill="#1f2933" text-anchor="start" class="">Delta planner worklists</text>
<rect x="72.0" y="792.0" width="280.0" height="64.0" rx="8" fill="#e8eef7" stroke="#c9d4e5" stroke-width="2"/>
<text x="212.0" y="834.0" font-size="23" font-weight="700" fill="#1f2933" text-anchor="middle" class="mono">rollout_requests</text>
<text x="392.0" y="832.0" font-size="27" font-weight="400" fill="#4b5563" text-anchor="start" class="">prompts with too few usable trajectories for the current policy</text>
<rect x="72.0" y="904.0" width="280.0" height="64.0" rx="8" fill="#e8eef7" stroke="#c9d4e5" stroke-width="2"/>
<text x="212.0" y="946.0" font-size="23" font-weight="700" fill="#1f2933" text-anchor="middle" class="mono">reward_traj_ids</text>
<text x="392.0" y="944.0" font-size="27" font-weight="400" fill="#4b5563" text-anchor="start" class="">trajectories whose reward is not found in reward or reward_cache</text>
<rect x="72.0" y="1016.0" width="280.0" height="64.0" rx="8" fill="#e8eef7" stroke="#c9d4e5" stroke-width="2"/>
<text x="212.0" y="1058.0" font-size="23" font-weight="700" fill="#1f2933" text-anchor="middle" class="mono">logprob_traj_ids</text>
<text x="392.0" y="1056.0" font-size="27" font-weight="400" fill="#4b5563" text-anchor="start" class="">trajectories missing old-policy logprob rows</text>
<rect x="72.0" y="1128.0" width="280.0" height="64.0" rx="8" fill="#e8eef7" stroke="#c9d4e5" stroke-width="2"/>
<text x="212.0" y="1170.0" font-size="23" font-weight="700" fill="#1f2933" text-anchor="middle" class="mono">advantage_traj_ids</text>
<text x="392.0" y="1168.0" font-size="27" font-weight="400" fill="#4b5563" text-anchor="start" class="">rewarded trajectories missing returns and advantages</text>
<line x1="72.0" y1="1680.0" x2="1168.0" y2="1680.0" stroke="#d7dbe2" stroke-width="2"/>
<text x="72.0" y="1719.0" font-size="21" font-weight="400" fill="#697386" text-anchor="start" class="">Prime_TTT RelPT report generated from this repository</text>
<text x="1168.0" y="1719.0" font-size="21" font-weight="400" fill="#697386" text-anchor="end" class="">3</text>
</svg>