<svg xmlns="http://www.w3.org/2000/svg" width="1240" height="1754" viewBox="0 0 1240 1754">
<rect width="100%" height="100%" fill="#fbfaf7"/>
<style>text{font-family:Droid Sans Fallback, DejaVu Sans, Arial, sans-serif;fill:#1f2933} .muted{fill:#5e6978} .small{font-size:23px} .body{font-size:28px} .h1{font-size:54px;font-weight:700} .h2{font-size:38px;font-weight:700} .h3{font-size:30px;font-weight:700} .mono{font-family:Source Code Pro,DejaVu Sans Mono,monospace}</style>
<text x="72.0" y="62.0" font-size="23" font-weight="400" fill="#697386" text-anchor="start" class="">Latest TRL PPO result</text>
<line x1="72" y1="82" x2="1168" y2="82" stroke="#d7dbe2" stroke-width="2"/>
<text x="72.0" y="155.0" font-size="45" font-weight="700" fill="#1f2933" text-anchor="start" class="">最新 200-step TRL PPO：RelPT 前后差异</text>
<rect x="72" y="225" width="1096" height="275" rx="8" fill="#f8fbff" stroke="#c8d7ea" stroke-width="2"/>
<text x="106.0" y="285.0" font-size="34" font-weight="700" fill="#1f2933" text-anchor="start" class="">实验配置</text>
<text x="120.0" y="335.0" font-size="25" font-weight="400" fill="#394150" text-anchor="start" class="mono">model = sshleifer/tiny-gpt2</text>
<text x="120.0" y="369.0" font-size="25" font-weight="400" fill="#394150" text-anchor="start" class="mono">dataset = pyarrow_arrow_cache</text>
<text x="120.0" y="403.0" font-size="25" font-weight="400" fill="#394150" text-anchor="start" class="mono">framework = trl_ppo_0.11.4</text>
<text x="120.0" y="437.0" font-size="25" font-weight="400" fill="#394150" text-anchor="start" class="mono">steps = 200, batch_size = 4, max_new_tokens = 16</text>
<text x="120.0" y="471.0" font-size="25" font-weight="400" fill="#394150" text-anchor="start" class="mono">job output = runs/metrics/trl_ppo_relpt_17266929.json</text>
<text x="72.0" y="615.0" font-size="26" font-weight="700" fill="#1f2933" text-anchor="start" class="">total time</text>
<rect x="332" y="585" width="610" height="34" rx="4" fill="#edf1f5" stroke="#edf1f5" stroke-width="0"/>
<rect x="332" y="585" width="610.0" height="34" rx="4" fill="#d86c59" stroke="#d86c59" stroke-width="0"/>
<text x="964.0" y="612.0" font-size="23" font-weight="400" fill="#5e6978" text-anchor="start" class="">baseline 20.6s</text>
<rect x="332" y="633" width="610" height="34" rx="4" fill="#edf1f5" stroke="#edf1f5" stroke-width="0"/>
<rect x="332" y="633" width="361.7150760029783" height="34" rx="4" fill="#2f8f83" stroke="#2f8f83" stroke-width="0"/>
<text x="964.0" y="660.0" font-size="23" font-weight="400" fill="#5e6978" text-anchor="start" class="">RelPT 12.2s</text>
<text x="72.0" y="760.0" font-size="26" font-weight="700" fill="#1f2933" text-anchor="start" class="">prep time</text>
<rect x="332" y="730" width="610" height="34" rx="4" fill="#edf1f5" stroke="#edf1f5" stroke-width="0"/>
<rect x="332" y="730" width="443.3718064376737" height="34" rx="4" fill="#d86c59" stroke="#d86c59" stroke-width="0"/>
<text x="964.0" y="757.0" font-size="23" font-weight="400" fill="#5e6978" text-anchor="start" class="">baseline 15.0s</text>
<rect x="332" y="778" width="610" height="34" rx="4" fill="#edf1f5" stroke="#edf1f5" stroke-width="0"/>
<rect x="332" y="778" width="224.71826033784592" height="34" rx="4" fill="#2f8f83" stroke="#2f8f83" stroke-width="0"/>
<text x="964.0" y="805.0" font-size="23" font-weight="400" fill="#5e6978" text-anchor="start" class="">RelPT 7.6s</text>
<text x="72.0" y="905.0" font-size="26" font-weight="700" fill="#1f2933" text-anchor="start" class="">generate time</text>
<rect x="332" y="875" width="610" height="34" rx="4" fill="#edf1f5" stroke="#edf1f5" stroke-width="0"/>
<rect x="332" y="875" width="441.3478909422943" height="34" rx="4" fill="#d86c59" stroke="#d86c59" stroke-width="0"/>
<text x="964.0" y="902.0" font-size="23" font-weight="400" fill="#5e6978" text-anchor="start" class="">baseline 14.9s</text>
<rect x="332" y="923" width="610" height="34" rx="4" fill="#edf1f5" stroke="#edf1f5" stroke-width="0"/>
<rect x="332" y="923" width="222.83377915413936" height="34" rx="4" fill="#2f8f83" stroke="#2f8f83" stroke-width="0"/>
<text x="964.0" y="950.0" font-size="23" font-weight="400" fill="#5e6978" text-anchor="start" class="">RelPT 7.5s</text>
<text x="72.0" y="1085.0" font-size="26" font-weight="700" fill="#1f2933" text-anchor="start" class="">generated rows</text>
<rect x="332" y="1055" width="610" height="34" rx="4" fill="#edf1f5" stroke="#edf1f5" stroke-width="0"/>
<rect x="332" y="1055" width="610.0" height="34" rx="4" fill="#d86c59" stroke="#d86c59" stroke-width="0"/>
<text x="964.0" y="1082.0" font-size="23" font-weight="400" fill="#5e6978" text-anchor="start" class="">baseline 1600.0</text>
<rect x="332" y="1103" width="610" height="34" rx="4" fill="#edf1f5" stroke="#edf1f5" stroke-width="0"/>
<rect x="332" y="1103" width="305.0" height="34" rx="4" fill="#2f8f83" stroke="#2f8f83" stroke-width="0"/>
<text x="964.0" y="1130.0" font-size="23" font-weight="400" fill="#5e6978" text-anchor="start" class="">RelPT 800.0</text>
<text x="72.0" y="1230.0" font-size="26" font-weight="700" fill="#1f2933" text-anchor="start" class="">reward rows</text>
<rect x="332" y="1200" width="610" height="34" rx="4" fill="#edf1f5" stroke="#edf1f5" stroke-width="0"/>
<rect x="332" y="1200" width="610.0" height="34" rx="4" fill="#d86c59" stroke="#d86c59" stroke-width="0"/>
<text x="964.0" y="1227.0" font-size="23" font-weight="400" fill="#5e6978" text-anchor="start" class="">baseline 1600.0</text>
<rect x="332" y="1248" width="610" height="34" rx="4" fill="#edf1f5" stroke="#edf1f5" stroke-width="0"/>
<rect x="332" y="1248" width="305.0" height="34" rx="4" fill="#2f8f83" stroke="#2f8f83" stroke-width="0"/>
<text x="964.0" y="1275.0" font-size="23" font-weight="400" fill="#5e6978" text-anchor="start" class="">RelPT 800.0</text>
<rect x="72" y="1480" width="1096" height="150" rx="8" fill="#ffffff" stroke="#d6dce5" stroke-width="2"/>
<text x="106.0" y="1530.0" font-size="29" font-weight="700" fill="#1f2933" text-anchor="start" class="">总时间节省 40.7%；生成行数和 reward 行数各减少 50.0%。</text>
<text x="106.0" y="1572.0" font-size="24" font-weight="400" fill="#5e6978" text-anchor="start" class="">final_eval_reward_delta = 0.0，说明这次实验主要证明系统省计算；它不证明 tiny-</text>
<text x="106.0" y="1604.0" font-size="24" font-weight="400" fill="#5e6978" text-anchor="start" class="">gpt2 数学能力提升。</text>
<line x1="72" y1="1680" x2="1168" y2="1680" stroke="#d7dbe2" stroke-width="2"/>
<text x="72.0" y="1719.0" font-size="21" font-weight="400" fill="#697386" text-anchor="start" class="">RelPT report generated from this repository</text>
<text x="1168.0" y="1719.0" font-size="21" font-weight="400" fill="#697386" text-anchor="end" class="">6</text>
</svg>